<svg xmlns="http://www.w3.org/2000/svg" xmlns:xlink="http://www.w3.org/1999/xlink" width="500" zoomAndPan="magnify" viewBox="0 0 375 374.999991" height="500" preserveAspectRatio="xMidYMid meet" version="1.0"><defs><g/></defs><g fill="#ffffff" fill-opacity="1"><g transform="translate(88.69905, 214.349986)"><g><path d="M 28.6875 0.875 C 23.226562 0.875 18.664062 -0.472656 15 -3.171875 C 11.332031 -5.867188 8.570312 -9.632812 6.71875 -14.46875 C 4.875 -19.3125 3.953125 -24.988281 3.953125 -31.5 C 3.953125 -37.957031 4.875 -43.585938 6.71875 -48.390625 C 8.570312 -53.203125 11.332031 -56.957031 15 -59.65625 C 18.664062 -62.363281 23.226562 -63.71875 28.6875 -63.71875 C 34.195312 -63.71875 38.375 -62.703125 41.21875 -60.671875 C 44.070312 -58.648438 45.5 -56.234375 45.5 -53.421875 C 45.5 -51.421875 44.75 -49.757812 43.25 -48.4375 C 41.757812 -47.125 39.488281 -46.46875 36.4375 -46.46875 C 36.4375 -52.332031 35.816406 -56.523438 34.578125 -59.046875 C 33.347656 -61.566406 31.207031 -62.828125 28.15625 -62.828125 C 23.8125 -62.828125 20.726562 -60.363281 18.90625 -55.4375 C 17.09375 -50.507812 16.1875 -42.53125 16.1875 -31.5 C 16.1875 -20.46875 17.285156 -12.488281 19.484375 -7.5625 C 21.691406 -2.632812 25.40625 -0.171875 30.625 -0.171875 C 34.375 -0.171875 37.242188 -1.429688 39.234375 -3.953125 C 41.234375 -6.484375 42.441406 -10.003906 42.859375 -14.515625 C 43.972656 -14.160156 44.691406 -13.53125 45.015625 -12.625 C 45.335938 -11.71875 45.5 -10.972656 45.5 -10.390625 C 45.5 -8.859375 45 -7.210938 44 -5.453125 C 43 -3.691406 41.28125 -2.195312 38.84375 -0.96875 C 36.414062 0.257812 33.03125 0.875 28.6875 0.875 Z M 28.6875 0.875 "/></g></g></g><g fill="#ffffff" fill-opacity="1"><g transform="translate(132.784939, 214.349986)"><g><path d="M 28.515625 0.875 C 22.992188 0.875 18.414062 -0.472656 14.78125 -3.171875 C 11.144531 -5.867188 8.429688 -9.648438 6.640625 -14.515625 C 4.847656 -19.390625 3.953125 -25.082031 3.953125 -31.59375 C 3.953125 -38.21875 4.847656 -43.9375 6.640625 -48.75 C 8.429688 -53.5625 11.144531 -57.269531 14.78125 -59.875 C 18.414062 -62.488281 23.019531 -63.796875 28.59375 -63.796875 C 36.457031 -63.796875 42.472656 -60.9375 46.640625 -55.21875 C 50.804688 -49.5 52.890625 -41.59375 52.890625 -31.5 C 52.890625 -24.925781 51.9375 -19.21875 50.03125 -14.375 C 48.125 -9.539062 45.347656 -5.789062 41.703125 -3.125 C 38.066406 -0.457031 33.671875 0.875 28.515625 0.875 Z M 28.515625 0 C 31.441406 0 33.800781 -0.976562 35.59375 -2.9375 C 37.382812 -4.90625 38.675781 -8.191406 39.46875 -12.796875 C 40.257812 -17.410156 40.65625 -23.644531 40.65625 -31.5 C 40.65625 -39.363281 40.273438 -45.597656 39.515625 -50.203125 C 38.753906 -54.804688 37.492188 -58.078125 35.734375 -60.015625 C 33.972656 -61.953125 31.59375 -62.921875 28.59375 -62.921875 C 25.550781 -62.921875 23.117188 -61.953125 21.296875 -60.015625 C 19.472656 -58.078125 18.164062 -54.804688 17.375 -50.203125 C 16.582031 -45.597656 16.1875 -39.363281 16.1875 -31.5 C 16.1875 -23.644531 16.597656 -17.425781 17.421875 -12.84375 C 18.242188 -8.269531 19.550781 -4.984375 21.34375 -2.984375 C 23.132812 -0.992188 25.523438 0 28.515625 0 Z M 28.515625 0 "/></g></g></g><g fill="#ffffff" fill-opacity="1"><g transform="translate(185.23045, 214.349986)"><g><path d="M 1.9375 0 L 1.9375 -0.875 L 5.1875 -0.875 C 6.425781 -0.875 7.304688 -1.3125 7.828125 -2.1875 C 8.359375 -3.070312 8.625 -4.570312 8.625 -6.6875 L 8.625 -56.3125 C 8.625 -58.539062 8.316406 -60.035156 7.703125 -60.796875 C 7.085938 -61.566406 6.101562 -61.953125 4.75 -61.953125 L 1.9375 -61.953125 L 1.9375 -62.828125 L 25.515625 -62.828125 C 33.671875 -62.828125 40.035156 -60.226562 44.609375 -55.03125 C 49.191406 -49.84375 51.484375 -42.234375 51.484375 -32.203125 C 51.484375 -25.753906 50.515625 -20.125 48.578125 -15.3125 C 46.640625 -10.5 43.75 -6.742188 39.90625 -4.046875 C 36.0625 -1.347656 31.265625 0 25.515625 0 Z M 20.328125 -0.875 L 24.203125 -0.875 C 27.722656 -0.875 30.582031 -1.929688 32.78125 -4.046875 C 34.976562 -6.160156 36.578125 -9.535156 37.578125 -14.171875 C 38.578125 -18.804688 39.078125 -24.878906 39.078125 -32.390625 C 39.078125 -42.710938 37.914062 -50.21875 35.59375 -54.90625 C 33.28125 -59.601562 29.484375 -61.953125 24.203125 -61.953125 L 20.328125 -61.953125 Z M 20.328125 -0.875 "/></g></g></g><g fill="#ffffff" fill-opacity="1"><g transform="translate(236.180035, 214.349986)"><g><path d="M 1.9375 0 L 1.9375 -0.875 L 3.953125 -0.875 C 5.421875 -0.875 6.566406 -1.210938 7.390625 -1.890625 C 8.210938 -2.566406 8.625 -4.195312 8.625 -6.78125 L 8.625 -55.703125 C 8.625 -58.460938 8.226562 -60.191406 7.4375 -60.890625 C 6.644531 -61.597656 5.484375 -61.953125 3.953125 -61.953125 L 1.9375 -61.953125 L 1.9375 -62.828125 L 41.96875 -62.828125 L 42.5 -47.078125 L 41.625 -47.078125 L 41.359375 -50.78125 C 41.066406 -55 40.023438 -57.914062 38.234375 -59.53125 C 36.441406 -61.144531 33.40625 -61.953125 29.125 -61.953125 L 20.234375 -61.953125 L 20.234375 -33.265625 L 38.71875 -33.265625 L 38.71875 -32.390625 L 20.234375 -32.390625 L 20.234375 -0.875 L 31.59375 -0.875 C 35.8125 -0.875 38.800781 -1.664062 40.5625 -3.25 C 42.320312 -4.832031 43.378906 -7.648438 43.734375 -11.703125 L 44 -15.75 L 44.875 -15.75 L 44.359375 0 Z M 1.9375 0 "/></g></g></g><g fill="#dd843c" fill-opacity="1"><g transform="translate(291.800376, 214.450006)"><g><path d="M 2.28125 13.109375 L 2.28125 12.0625 L 5.71875 12.0625 C 7.863281 12.0625 9.382812 11.265625 10.28125 9.671875 C 11.1875 8.078125 11.640625 5.234375 11.640625 1.140625 L 11.640625 -18.71875 C 11.640625 -22.1875 12.160156 -24.941406 13.203125 -26.984375 C 14.242188 -29.035156 16.007812 -30.523438 18.5 -31.453125 C 21 -32.390625 24.398438 -32.929688 28.703125 -33.078125 L 28.703125 -33.28125 C 24.335938 -33.5625 20.921875 -34.203125 18.453125 -35.203125 C 15.992188 -36.210938 14.242188 -37.6875 13.203125 -39.625 C 12.160156 -41.5625 11.640625 -44.160156 11.640625 -47.421875 L 11.640625 -67.078125 C 11.640625 -71.171875 11.207031 -74.015625 10.34375 -75.609375 C 9.476562 -77.203125 7.9375 -78 5.71875 -78 L 2.28125 -78 L 2.28125 -79.046875 L 10.5 -79.046875 C 15.289062 -79.046875 18.945312 -77.742188 21.46875 -75.140625 C 24 -72.535156 25.265625 -68.804688 25.265625 -63.953125 L 25.265625 -44.515625 C 25.265625 -40.492188 26.046875 -37.6875 27.609375 -36.09375 C 29.171875 -34.5 31.71875 -33.628906 35.25 -33.484375 L 35.25 -32.546875 C 31.507812 -32.484375 28.910156 -31.617188 27.453125 -29.953125 C 25.992188 -28.285156 25.265625 -25.507812 25.265625 -21.625 L 25.265625 -2.1875 C 25.265625 2.664062 24 6.425781 21.46875 9.09375 C 18.945312 11.769531 15.257812 13.109375 10.40625 13.109375 Z M 2.28125 13.109375 "/></g></g></g><g fill="#dd843c" fill-opacity="1"><g transform="translate(80.095422, 149.989003)"><g><path d="M -2.28125 -13.109375 L -2.28125 -12.0625 L -5.71875 -12.0625 C -7.863281 -12.0625 -9.382812 -11.265625 -10.28125 -9.671875 C -11.1875 -8.078125 -11.640625 -5.234375 -11.640625 -1.140625 L -11.640625 18.71875 C -11.640625 22.1875 -12.160156 24.941406 -13.203125 26.984375 C -14.242188 29.035156 -16.007812 30.523438 -18.5 31.453125 C -21 32.390625 -24.398438 32.929688 -28.703125 33.078125 L -28.703125 33.28125 C -24.335938 33.5625 -20.921875 34.203125 -18.453125 35.203125 C -15.992188 36.210938 -14.242188 37.6875 -13.203125 39.625 C -12.160156 41.5625 -11.640625 44.160156 -11.640625 47.421875 L -11.640625 67.078125 C -11.640625 71.171875 -11.207031 74.015625 -10.34375 75.609375 C -9.476562 77.203125 -7.9375 78 -5.71875 78 L -2.28125 78 L -2.28125 79.046875 L -10.5 79.046875 C -15.289062 79.046875 -18.945312 77.742188 -21.46875 75.140625 C -24 72.535156 -25.265625 68.804688 -25.265625 63.953125 L -25.265625 44.515625 C -25.265625 40.492188 -26.046875 37.6875 -27.609375 36.09375 C -29.171875 34.5 -31.71875 33.628906 -35.25 33.484375 L -35.25 32.546875 C -31.507812 32.484375 -28.910156 31.617188 -27.453125 29.953125 C -25.992188 28.285156 -25.265625 25.507812 -25.265625 21.625 L -25.265625 2.1875 C -25.265625 -2.664062 -24 -6.425781 -21.46875 -9.09375 C -18.945312 -11.769531 -15.257812 -13.109375 -10.40625 -13.109375 Z M -2.28125 -13.109375 "/></g></g></g></svg>